<?xml version="1.0" standalone="no"?><!DOCTYPE svg PUBLIC "-//W3C//DTD SVG 1.1//EN" "http://www.w3.org/Graphics/SVG/1.1/DTD/svg11.dtd"><svg t="1573101352410" class="icon" viewBox="0 0 1024 1024" version="1.1" xmlns="http://www.w3.org/2000/svg" p-id="1409" xmlns:xlink="http://www.w3.org/1999/xlink" width="24" height="24"><defs><style type="text/css"></style></defs><path d="M512 753.65a40.76 40.76 0 1 0 40.77 40.76A40.81 40.81 0 0 0 512 753.65zM713.68 112H310.32a61.61 61.61 0 0 0-61.54 61.54v676.92A61.61 61.61 0 0 0 310.32 912h403.36a61.61 61.61 0 0 0 61.54-61.54V173.54A61.61 61.61 0 0 0 713.68 112z m-403.36 41h403.36a20.53 20.53 0 0 1 20.51 20.51v507.17H289.81V173.54A20.53 20.53 0 0 1 310.32 153z m403.36 718H310.32a20.53 20.53 0 0 1-20.51-20.51V725.22h444.38v125.24A20.53 20.53 0 0 1 713.68 871z m0 0" p-id="1410"></path></svg>